<svg width="256" height="256" viewBox="0 0 256 256" fill="none" xmlns="http://www.w3.org/2000/svg">
  <defs>
    <linearGradient id="bg" x1="40" y1="28" x2="210" y2="232" gradientUnits="userSpaceOnUse">
      <stop stop-color="#0F172A"/>
      <stop offset="0.45" stop-color="#4C1D95"/>
      <stop offset="1" stop-color="#DB2777"/>
    </linearGradient>
    <linearGradient id="face" x1="78" y1="72" x2="178" y2="188" gradientUnits="userSpaceOnUse">
      <stop stop-color="#F5F3FF"/>
      <stop offset="1" stop-color="#E9D5FF"/>
    </linearGradient>
    <linearGradient id="visor" x1="88" y1="110" x2="168" y2="110" gradientUnits="userSpaceOnUse">
      <stop stop-color="#22D3EE"/>
      <stop offset="0.5" stop-color="#A78BFA"/>
      <stop offset="1" stop-color="#F472B6"/>
    </linearGradient>
    <filter id="shadow" x="22" y="16" width="212" height="224" filterUnits="userSpaceOnUse" color-interpolation-filters="sRGB">
      <feFlood flood-opacity="0" result="BackgroundImageFix"/>
      <feColorMatrix in="SourceAlpha" type="matrix" values="0 0 0 0 0 0 0 0 0 0 0 0 0 0 0 0 0 0 127 0" result="hardAlpha"/>
      <feOffset dy="12"/>
      <feGaussianBlur stdDeviation="14"/>
      <feColorMatrix type="matrix" values="0 0 0 0 0.298039 0 0 0 0 0.113725 0 0 0 0 0.584314 0 0 0 0.35 0"/>
      <feBlend mode="normal" in2="BackgroundImageFix" result="effect1_dropShadow_1_1"/>
      <feBlend mode="normal" in="SourceGraphic" in2="effect1_dropShadow_1_1" result="shape"/>
    </filter>
  </defs>
  <g filter="url(#shadow)">
    <rect x="44" y="32" width="168" height="192" rx="48" fill="url(#bg)"/>
    <path d="M128 42C140.703 42 151 52.2975 151 65V76H105V65C105 52.2975 115.297 42 128 42Z" fill="#C4B5FD" fill-opacity="0.35"/>
    <rect x="74" y="72" width="108" height="118" rx="34" fill="url(#face)"/>
    <rect x="88" y="96" width="80" height="30" rx="15" fill="#1E1B4B"/>
    <rect x="92" y="100" width="72" height="22" rx="11" fill="url(#visor)"/>
    <circle cx="112" cy="111" r="7" fill="#ECFEFF"/>
    <circle cx="144" cy="111" r="7" fill="#ECFEFF"/>
    <path d="M106 148C106 145.791 107.791 144 110 144H146C148.209 144 150 145.791 150 148V150C150 160.493 140.493 169 128 169C115.507 169 106 160.493 106 150V148Z" fill="#312E81"/>
    <rect x="118" y="18" width="20" height="34" rx="10" fill="#F0ABFC"/>
    <circle cx="128" cy="16" r="14" fill="#F9A8D4"/>
    <circle cx="128" cy="16" r="8" fill="#FDF2F8" fill-opacity="0.85"/>
    <path d="M86 192H170C170 209.673 151.196 224 128 224C104.804 224 86 209.673 86 192Z" fill="#DDD6FE" fill-opacity="0.9"/>
    <path d="M60 109C60 100.163 67.1634 93 76 93H82V149H76C67.1634 149 60 141.837 60 133V109Z" fill="#A78BFA" fill-opacity="0.55"/>
    <path d="M196 109C196 100.163 188.837 93 180 93H174V149H180C188.837 149 196 141.837 196 133V109Z" fill="#F472B6" fill-opacity="0.55"/>
  </g>
</svg>
